<?xml version="1.0" standalone="no"?>
<svg viewBox="0 0 200 200" xmlns="http://www.w3.org/2000/svg">
  <path fill="#FF0066" d="M34.6,-46.9C46.4,-39,58.6,-31,67.2,-18.5C75.7,-6.1,80.6,10.9,77.3,26.3C73.9,41.7,62.3,55.7,48,66.1C33.7,76.5,16.9,83.4,2.7,79.8C-11.6,76.1,-23.1,61.9,-38,51.7C-52.8,41.5,-70.9,35.2,-80.3,22.3C-89.8,9.4,-90.5,-10.1,-83.6,-25.8C-76.6,-41.5,-62.1,-53.5,-46.9,-60.2C-31.7,-66.9,-15.8,-68.4,-2.2,-65.3C11.4,-62.3,22.8,-54.7,34.6,-46.9Z" transform="translate(100 100)" />
</svg>
