<svg xmlns="http://www.w3.org/2000/svg" version="1.1" xmlns:xlink="http://www.w3.org/1999/xlink" xmlns:svgjs="http://svgjs.dev/svgjs" viewBox="0 0 800 800" opacity="0.56"><defs><linearGradient x1="50%" y1="0%" x2="50%" y2="100%" id="uundulate-grad"><stop stop-color="hsl(162, 78%, 41%)" stop-opacity="1" offset="45%"></stop><stop stop-color="hsl(270, 73%, 53%)" stop-opacity="1" offset="100%"></stop></linearGradient></defs><g stroke-width="5" stroke="url(#uundulate-grad)" fill="none"><path d="M1323.23417162154 -97.07460875075685C1349.328171956412 231.62108749684944 1261.0205009828824 441.1037537384025 910.5307658460256 800.0209665294622C560.0410307091695 1158.938179320522 -78.01475384662876 1768.7959286029281 -359.1165570353721 1625.728012646332C-640.2183602241154 1482.6600966897354 -497.70539870810444 592.5856966594324 -438.7578894599395 113.2949699378023C-379.8103802117746 -365.9957567838276 -331.1763154980533 -489.23969532647925 -76.1685126441821 -674.8674756174889C178.8392902096889 -860.4952559084986 493.73733834995073 -898.0918893896144 785.2795642386425 -777.7183754590458C1076.8217901273338 -657.3448615284772 1297.1401712866682 -425.7703049983627 1323.23417162154 -97.07460875075685C1349.328171956412 231.62108749684944 1261.0205009828824 441.1037537384025 910.5307658460256 800.0209665294622 "></path><path d="M1296.856093413101 -82.87245091423938C1322.2045508812625 236.43193972629206 1236.4199562212616 439.9293869323724 895.944213516887 788.591822215116C555.4684708125124 1137.2542574978597 -64.35714847026316 1729.6874996579118 -337.4274715678994 1590.707238442932C-610.4977946655357 1451.7269772279528 -472.0566320499823 587.0832743413728 -414.79333735176493 121.4865683832179C-357.5300426535476 -344.11013757493697 -310.2855226459326 -463.83282073065584 -62.563657016457796 -644.156950156208C185.158208613017 -824.4810795817602 491.059169663557 -861.0035235348441 774.2716176697147 -744.0692528594345C1057.4840656758718 -627.1349821840251 1271.5076359449395 -402.17684155477116 1296.856093413101 -82.87245091423938C1322.2045508812625 236.43193972629206 1236.4199562212616 439.9293869323724 895.944213516887 788.591822215116 "></path><path d="M1270.4779541695057 -68.67035411287861C1295.0808687709568 241.24273092057865 1211.8193504244855 438.7549590911858 881.3576001525923 777.1626168656135C550.895849880699 1115.5702746400411 -50.69960412905357 1690.5790096777387 -315.738447135583 1555.6864032043763C-580.7772901421124 1420.793796731014 -446.4079264270164 581.5807909881567 -390.8288462787466 129.67810579347724C-335.2497661304768 -322.2245794012025 -289.3947908289681 -438.42600716998845 -48.95886242388963 -613.4464857300834C191.47706598118884 -788.4669642901782 488.38093994200744 -823.9152187152301 763.2636100656307 -710.4201912949798C1038.146280189254 -596.9251638747294 1245.8750395680545 -378.5834391463359 1270.4779541695057 -68.67035411287861C1295.0808687709568 241.24273092057865 1211.8193504244855 438.7549590911858 881.3576001525923 777.1626168656135 "></path><path d="M1244.0998454434884 -54.468196276361596C1267.9572171782283 246.05358315002127 1187.2187751452868 437.5805922851557 866.7710173058754 765.7334725512674C546.3232594664637 1093.8863528173792 -37.04202927026597 1651.4705807327218 -294.0493921856885 1520.6656290009764C-551.0567551011109 1389.860677269231 -420.7591902864723 576.0783686700972 -366.8643246881501 137.8697042388926C-312.96945908982786 -300.3389601923119 -268.5040284944255 -413.01913257416504 -35.35403731374345 -582.7359602688024C197.79595386693882 -752.4527879634398 485.7027407380356 -786.8268528604599 752.2556329791248 -676.7710686953686C1018.808525220214 -566.7152845302774 1220.242473708748 -354.98997570274423 1244.0998454434884 -54.468196276361596C1267.9572171782283 246.05358315002127 1187.2187751452868 437.5805922851557 866.7710173058754 765.7334725512674 "></path><path d="M1217.721675682315 -40.266221545312874C1240.8335045503445 250.86425227399536 1162.6181388309321 436.40604237365665 852.1843734240024 754.3041451314523C541.7506080170724 1072.2022478892482 -23.384515446634623 1612.3619686822367 -272.3603982709501 1485.6446716921087C-521.3362810952656 1358.9273747019802 -395.1105151810845 570.5757632465688 -342.89986413270987 146.06111957883923C-290.68921308433517 -278.45352408889005 -247.61332719503923 -387.61244108381015 -21.74927323875329 -552.0256179129902C204.11478071753254 -716.4387947421703 483.02448049890745 -749.7386701111584 741.2475948574627 -643.1221292012262C999.4707092160179 -536.5055882912941 1194.6098468142854 -331.39669536462134 1217.721675682315 -40.266221545312874C1240.8335045503445 250.86425227399536 1162.6181388309321 436.40604237365665 852.1843734240024 754.3041451314523 "></path><path d="M1191.3435669562978 -26.06397215606148C1213.7098529576167 255.67519605617235 1138.017563551734 435.2317671203607 837.5977905772854 742.8750923698406C537.1780176028374 1050.5184176193206 -9.726940587847025 1573.2536312899542 -250.6713433210556 1450.623989041443C-491.6157460542641 1327.994346792932 -369.4617790405404 565.0734324812436 -318.93534254211335 154.2528095769892C-268.4089060436863 -256.56781332726507 -226.72256486049662 -362.20547493525237 -8.14444812860711 -521.3150008989749C210.4336686032825 -680.4245268626976 480.3462812949356 -712.6502127036538 730.2396177709566 -609.4729150488807C980.132954246978 -506.2956173941077 1168.9772809549786 -307.8031403682953 1191.3435669562978 -26.06397215606148C1213.7098529576167 255.67519605617235 1138.017563551734 435.2317671203607 837.5977905772854 742.8750923698406 "></path><path d="M1164.9654582302805 -11.861844837122476C1186.586201364889 260.4860177680371 1113.4169882725353 434.0573697967525 823.0112077305687 731.4459175379163C532.6054271886019 1028.8344652790802 3.9306342709405726 1534.1451718273593 -228.98228837116102 1415.6031843204655C-461.89521101326255 1297.0611968135709 -343.8130428999964 559.5709796456056 -294.9708209515169 162.44437750482666C-246.12859900303738 -234.6822246359526 -205.831802525954 -336.79863085700686 5.460376981539184 -490.6045059552721C216.7525564890325 -644.4103810535373 477.6680820909637 -675.5618773664617 719.2316406844509 -575.8238229668477C960.7951992779383 -476.0857685672337 1143.3447150956722 -284.2097074422818 1164.9654582302805 -11.861844837122476C1186.586201364889 260.4860177680371 1113.4169882725353 434.0573697967525 823.0112077305687 731.4459175379163 "></path><path d="M1138.5873189866852 2.34034351697278C1159.462519254583 265.2969005150576 1088.8163824757587 432.8830335083003 808.4245943662736 720.0168037411481C528.0328062567887 1007.1505739739957 17.588178612150045 1495.036773399921 -207.29326393884458 1380.5824406346437C-432.1747064898392 1266.1281078693664 -318.1643372770304 554.0685878451241 -271.0063298784985 170.63600646782015C-223.84832247996655 -212.79657490948387 -184.9410707089895 -311.3917257436053 19.065171574107353 -459.89394997641307C223.07141385720422 -608.3961742092208 474.9898523694137 -638.4734809941133 708.2236330803669 -542.1746698496585C941.45741379132 -445.87585870520354 1117.7121187187875 -260.61621348111214 1138.5873189866852 2.34034351697278C1159.462519254583 265.2969005150576 1088.8163824757587 432.8830335083003 808.4245943662736 720.0168037411481 "></path><path d="M1112.2091187079336 16.542470835911786C1132.3387761091208 270.1077222269223 1064.2157156438261 431.70863618469184 793.8379199668225 708.5876289092237C523.4601242898191 985.4666216337555 31.245661918203268 1455.928313937326 -185.60430054168438 1345.5616359136657C-402.45426300157203 1235.1949578900058 -292.51569268922077 548.5661350094863 -247.0418998406364 178.8275743956574C-201.56810699205204 -190.9109862181714 -164.0503999271814 -285.9848816653599 32.66990513151927 -429.18345503271024C229.39021019021982 -572.3820284000606 472.3115616127077 -601.3851456569212 697.2155644411268 -508.52557776762546C922.1195672695458 -415.66600987832965 1092.0794613067465 -237.02278055509862 1112.2091187079336 16.542470835911786C1132.3387761091208 270.1077222269223 1064.2157156438261 431.70863618469184 793.8379199668225 708.5876289092237 "></path><path d="M1085.8310099819162 30.74459815485079C1105.2151245163927 274.9185439387868 1039.6151403646275 430.5342388610834 779.2513371201057 697.1584540772992C518.8875338755838 963.782669293515 44.903236776990866 1416.819854474731 -163.9152455917898 1310.5408311926876C-372.73372796057055 1204.261807910645 -266.86695654867674 543.0636821738485 -223.07737825003994 187.01914232349463C-179.28779995140314 -169.0253975268589 -143.15963759263877 -260.5780375871145 46.274730241665566 -398.4729600890074C235.7090980759699 -536.3678825909003 469.6333624087358 -564.296810319729 686.207587354621 -474.87648568559246C902.7818123005059 -385.45616105145575 1066.4468954474398 -213.4293476290851 1085.8310099819162 30.74459815485079C1105.2151245163927 274.9185439387868 1039.6151403646275 430.5342388610834 779.2513371201057 697.1584540772992 "></path><path d="M1059.4529012558992 44.946694956211786C1078.091472923665 279.72933513307316 1015.0145650854292 429.3598110198968 764.664754273389 685.7292487277966C514.3149434613488 942.0986864356964 58.560811635778464 1377.7113644945584 -142.22619064189524 1275.5199959541324C-343.013192919569 1173.328627413706 -241.21822040813265 537.5611988206326 -199.11285665944342 195.21067973375398C-157.0074929107542 -147.13983935312456 -122.26887525809616 -235.17122402644725 59.87955535181186 -367.76249566288277C242.02798596171976 -500.35376729931824 466.95516320476395 -527.2085055001152 675.1996102681151 -441.2274241211376C883.4440573314662 -355.24634274216 1040.8143295881334 -189.83594522064982 1059.4529012558992 44.946694956211786C1078.091472923665 279.72933513307316 1015.0145650854292 429.3598110198968 764.664754273389 685.7292487277966 "></path><path d="M1033.074792529882 59.14885279272892C1050.967821330937 284.540187362516 990.4139898062308 428.18544421386673 750.0781714266723 674.3001044134505C509.7423530471135 920.4147646130343 72.21838649456618 1338.6029355495416 -120.53713569200067 1240.4992217507324C-313.2926578785675 1142.3955079519235 -215.56948426758862 532.058776502573 -175.14833506884696 203.40227817916957C-134.7271858701053 -125.25422014423395 -101.37811292355354 -209.76434943062372 73.48438046195815 -337.0519702016018C248.34687384746985 -464.3395909725799 464.2769640007923 -490.1201396453449 664.1916331816092 -407.57830152152644C864.1063023624263 -325.03646339770796 1015.1817637288266 -166.24248177705817 1033.074792529882 59.14885279272892C1050.967821330937 284.540187362516 990.4139898062308 428.18544421386673 750.0781714266723 674.3001044134505 "></path><path d="M1006.6967753565991 73.35098011166792C1023.8442612909437 289.3510090743807 965.8135060797665 427.0110468902585 735.4916801326897 662.8709295815263C505.1698541856126 898.7308122727941 85.87605290608803 1299.4944760869466 -98.84798918937179 1205.4784170297548C-283.5720312848316 1111.4623579725628 -189.92065657431016 526.556323666935 -151.18372192551607 211.5938461070068C-112.44678727672198 -103.36863145292148 -80.48725903627655 -184.35750535237833 87.08929712483882 -306.341475257899C254.66585328595409 -428.32544516341966 461.5988563495548 -453.0318043081528 653.1837476478377 -373.92920943949343C844.7686389461205 -294.82661457083407 989.5492894222546 -142.64904885104465 1006.6967753565991 73.35098011166792C1023.8442612909437 289.3510090743807 965.8135060797665 427.0110468902585 735.4916801326897 662.8709295815263 "></path><path d="M980.3186055954257 87.55310743060704C996.7205486630596 294.161830786245 941.212869765412 425.83664956664984 720.9050362508165 651.4417547496016C500.59720273622133 877.0468599325534 99.5335667297195 1260.3860166243514 -77.15899527463347 1170.4576123087768C-253.85155727898638 1080.529207993202 -164.27198146892238 521.0538708312972 -127.21926137007586 219.78541403484417C-90.16654127122933 -81.483042761609 -59.59655773689019 -158.95066127413293 100.69406119982887 -275.6309803141962C260.9846801365478 -392.3112993542594 458.9205961104267 -415.9434689709607 642.1757095261755 -340.2801173574604C825.4308229419244 -264.6167657439602 963.9166625277919 -119.05561592503113 980.3186055954257 87.55310743060704C996.7205486630596 294.161830786245 941.212869765412 425.83664956664984 720.9050362508165 651.4417547496016 "></path><path d="M953.9404663518303 101.75520423196781C969.5968665527537 298.97262198053147 916.6122639686355 424.6622217254635 706.3184228865216 640.0125494000993C496.02458180440783 855.362877074735 113.19111107092897 1221.2775266441788 -55.469970842317025 1135.4367770702208C-224.13105275556296 1049.596027496263 -138.6232758459564 515.5513874780813 -103.25477029705746 227.9769514451034C-67.88626474815851 -59.59748458787453 -38.70582591992576 -133.54384771346565 114.29885579239692 -244.92051588807152C267.30353750471954 -356.29718406267733 456.2423663888767 -378.85516415134674 631.1677019220915 -306.63105579300554C806.0930374553063 -234.4069474346644 938.2840661509069 -95.46221351659574 953.9404663518303 101.75520423196781C969.5968665527537 298.97262198053147 916.6122639686355 424.6622217254635 706.3184228865216 640.0125494000993 "></path><path d="M927.5623576258129 115.95733155090693C942.4732149600256 303.7834436923961 892.011688689437 423.48782440185505 691.7318400398049 628.5833745681748C491.4519913901727 833.6789247344948 126.84868592971657 1182.169067181584 -33.780915892422456 1100.4159723492432C-194.41051771456148 1018.6628775169024 -112.97453970541238 510.04893464244356 -79.290248706461 236.16851937294075C-45.60595770750962 -37.711895896562055 -17.815063585383143 -108.13700363522025 127.90368090254321 -214.2100209443687C273.6224253904695 -320.2830382535171 453.56416718490493 -341.7668288141546 620.1597248355858 -272.98196371097254C786.7552824862667 -204.1970986077905 912.6515002916005 -71.86878059058233 927.5623576258129 115.95733155090693C942.4732149600256 303.7834436923961 892.011688689437 423.48782440185505 691.7318400398049 628.5833745681748 "></path><path d="M901.1842488997959 130.15948938742417C915.3495633672978 308.5942959218388 867.4111134102386 422.31345759582473 677.1452571930881 617.1542302538287C486.87940097593753 811.9950029118324 140.50626078850416 1143.0606382365672 -12.091860942527887 1065.3951981458436C-164.68998267355994 987.7297580551199 -87.3258035648683 504.5465123243839 -55.32572711586448 244.36011781835612C-23.325650666860724 -15.826276687671452 3.0756987491594145 -82.73012903939684 141.5085060126895 -183.49949548308774C279.9413132762195 -284.26886192677875 450.8859679809332 -304.6784629593844 609.15174774908 -239.3328411113614C767.4175275172265 -173.9872192633385 887.0189344322939 -48.27531714699069 901.1842488997959 130.15948938742417C915.3495633672978 308.5942959218388 867.4111134102386 422.31345759582473 677.1452571930881 617.1542302538287 "></path><path d="M874.8061401737787 144.36158618878494C888.22591177457 313.4050871161252 842.8105381310402 421.13902975463816 662.5586743463714 605.7250249043259C482.30681056170226 790.3110200540139 154.16383564729176 1103.9521482563941 9.597194007366681 1030.3743629072874C-134.96944763255846 956.7965775581808 -61.677067424324264 499.0440289711678 -31.36120552526802 252.55165522861535C-1.0453436262117748 6.059281486062787 23.96646108370203 -57.32331547872957 155.1133311228358 -152.7890310569631C286.26020116196946 -248.25474663519662 448.2077687769613 -267.5901581397704 598.1437706625741 -205.68377954690658C748.0797725481868 -143.77740095404272 861.3863685729871 -24.681914738555406 874.8061401737787 144.36158618878494C888.22591177457 313.4050871161252 842.8105381310402 421.13902975463816 662.5586743463714 605.7250249043259 "></path><path d="M848.4280009301833 158.5637745428803C861.1022296642641 318.21596986314603 818.2099323342636 419.9646934661862 647.9720609820763 594.2959111075579C477.734189629889 768.6271287489299 167.82137998850123 1064.8437498289559 31.286218439683125 995.353619221466C-105.24894310913504 925.8634886139764 -36.0283618013583 493.5416371706865 -7.3967144522496255 260.74328419160895C21.23493289685905 27.944931212531515 44.85719290066652 -31.91641036532792 168.71812571540386 -122.07847507810402C292.5790585301413 -212.24053979088018 445.5295390554113 -230.50176176742207 587.1357630584902 -172.03462642971732C728.7419870615686 -113.56749109201257 835.7537721961025 -1.088420777385636 848.4280009301833 158.5637745428803C861.1022296642641 318.21596986314603 818.2099323342636 419.9646934661862 647.9720609820763 594.2959111075579 "></path><path d="M822.0498922041661 172.76584082666295C833.978578071536 323.0267305398544 793.6093570550652 418.7902351074216 633.3854781353596 582.8666752404774C473.1615992156537 746.9431153735334 181.47895484728883 1025.7352293312047 52.97527338957764 960.332753465332C-75.52840806813356 894.9302775994593 -10.37962566081427 488.03912329989225 16.567807138346836 268.93479108429005C43.51523993750794 49.830458868687856 65.74795523520913 -6.509627322238771 182.32295082555015 -91.36804116955744C298.8979464158913 -176.22645501687617 442.85133985143966 -193.4134874653862 576.1277859719843 -138.38559538284056C709.4042320925289 -83.35770330029493 810.1212063367959 22.504951113471634 822.0498922041661 172.76584082666295C833.978578071536 323.0267305398544 793.6093570550652 418.7902351074216 633.3854781353596 582.8666752404774 "></path><path d="M795.6717224429926 186.96802918075832C806.8548654436522 327.83761328687524 769.0087207407107 417.6158988189694 618.7988342534865 571.4375614437095C468.58894776626244 725.2592240684494 195.1364686709203 986.6268309037662 74.66426730431596 925.3120097795106C-45.80793406228827 863.9971886552551 15.269049444573511 482.53673149941085 40.53226769378705 277.12642004728366C65.79548594300059 71.71610859515658 86.63865653459544 18.897277791162878 195.9277149005402 -60.65748519069837C305.216773266485 -140.21224817255967 440.17307961231154 -156.32509109303783 565.119747850322 -104.7364422656513C690.0664160883327 -53.147793438264785 784.488579442333 46.098445074641404 795.6717224429926 186.96802918075832C806.8548654436522 327.83761328687524 769.0087207407107 417.6158988189694 618.7988342534865 571.4375614437095 "></path><path d="M769.2936747521317 201.17015649969733C779.7312748860804 332.64843499873973 744.4082064966683 416.4415014953611 604.2123124419259 560.008386611785C464.0164183871834 703.5752717282089 208.79410456486403 947.5183714411714 96.35338328936677 890.2912050585328C-16.087337986130535 833.0640386758942 40.91784662027385 477.03427866377297 64.49685031953982 285.317987975121C88.07585401880579 93.60169728646906 107.5294799042943 44.30412186940828 209.53260104584274 -29.946990246995597C311.53572218739123 -104.19810236339947 437.4949414434959 -119.2367557558457 554.1118317989725 -71.0873501836183C670.7287221544491 -22.937944611390833 758.8560746181829 69.69187800065492 769.2936747521317 201.17015649969733C779.7312748860804 332.64843499873973 744.4082064966683 416.4415014953611 604.2123124419259 560.008386611785 "></path><path d="M742.9155049909582 215.37228381863633C752.6075622581964 337.45925671060434 719.8075701823136 415.26710417175264 589.6256685600529 548.5792117798605C459.4437669377919 681.8913193879685 222.4516183884955 908.4099119785765 118.0423772041051 855.2704003375547C13.633136019714755 802.1308886965335 66.56652172566163 471.5318258281352 88.46131087498003 293.50955590295825C110.35610002429843 115.48728597778154 128.4201812036806 69.71096594765368 223.13736512083278 0.7635046967072299C317.85454903798495 -68.18395655423922 434.8166812043679 -82.14842041865364 543.1037936773105 -37.43825810158529C651.3909061502529 7.271904215483062 733.2234477237198 93.28531092666844 742.9155049909582 215.37228381863633C752.6075622581964 337.45925671060434 719.8075701823136 415.26710417175264 589.6256685600529 548.5792117798605 "></path><path d="M716.5374267825191 229.57441113757545C725.4839411830467 342.27007842246894 695.2070254206935 414.0927068481443 575.0391162309143 537.1500369479362C454.8712070411349 660.207367047728 236.1092237648612 869.3014525159817 139.7314626715778 820.2495956165772C43.35370157829436 771.1977387171728 92.21528838378384 466.02937299249743 112.42586298315467 301.7011238307957C132.6364375825255 137.37287466909402 149.31097405580135 95.11781002589908 236.7422207485572 31.473999640410057C324.17346744131305 -32.16981074507902 432.1385125179743 -45.06008508146152 532.0958471083827 -3.789166019552283C632.0531816987913 37.48175304235696 707.5909123819914 116.87874385268185 716.5374267825191 229.57441113757545C725.4839411830467 342.27007842246894 695.2070254206935 414.0927068481443 575.0391162309143 537.1500369479362 "></path><path d="M690.1593180565019 243.77653845651446C698.3602895903189 347.08090013433343 670.6064501414951 412.91830952453586 560.4525333841973 525.7208621160117C450.29861662689973 638.5234147074876 249.7667986236488 830.1929930533865 161.42051762147236 785.2287908955993C73.0742366192959 740.2645887378119 117.86402452432787 460.52692015685955 136.39038457375113 309.89269175863296C154.9167446231744 159.2584633604065 170.20173639034397 120.52465410414447 250.3470458587035 62.18449458411283C330.492355327063 3.8443350640812355 429.4603133140024 -7.9717497442694025 521.0878700218768 29.859926062480724C612.7154267297512 67.69160186923085 681.958346522685 140.47217677869537 690.1593180565019 243.77653845651446C698.3602895903189 347.08090013433343 670.6064501414951 412.91830952453586 560.4525333841973 525.7208621160117 "></path><path d="M663.7811482953283 257.97866577545346C671.2365769624347 351.89172184619804 646.0058138271404 411.7439122009275 545.8658895023243 514.2916872840874C445.7259651775082 616.8394623672474 263.42431244728016 791.084533590792 183.10951153621068 750.2079861746215C102.79471062514114 709.3314387584512 143.5126996297157 455.0244673212218 160.3548451291914 318.08425968647043C177.1969906286671 181.14405205171897 191.09243768973027 145.93149818238987 263.9518099336935 92.89498952781565C336.81118217765663 39.85848087324143 426.7820530748743 29.11658559292266 510.0798319002148 63.50901814451373C593.3776107255552 97.90145069610475 656.3257196282221 164.06560970470883 663.7811482953283 257.97866577545346C671.2365769624347 351.89172184619804 646.0058138271404 411.7439122009275 545.8658895023243 514.2916872840874 "></path><path d="M637.4030853456784 272.1808236119706C644.1129711460741 356.70257407564077 621.4052843243092 410.5695453948972 531.2793524319748 502.86254296974107C441.15342053964014 595.155540544585 277.08193308243494 751.9761046457752 204.79861226247237 715.1872119712218C132.51529144250986 678.3983192966685 169.16148154662693 449.522045003162 184.31941249615505 326.2758581318858C199.47734344568318 203.02967126060952 211.98324580064008 171.33837277821334 277.55668082020696 123.6055149890966C343.1301158397738 75.87265719997981 424.1038996472697 66.2049514476929 499.0719005900761 97.15814074412486C574.0399015328825 128.11133004055677 630.6931995452826 187.65907314830042 637.4030853456784 272.1808236119706C644.1129711460741 356.70257407564077 621.4052843243092 410.5695453948972 531.2793524319748 502.86254296974107 "></path><path d="M611.0249766196612 286.3829509309096C616.9893195533461 361.51339578750526 596.8047090451107 409.395148071289 516.6927695852579 491.43336813781684C436.580830125405 573.4715882043448 290.73950794122254 712.8676451831805 226.48766721236694 680.1664072502441C162.23582648351135 647.4651693173078 194.81021768717096 444.01959216752425 208.28393408675151 334.46742605972315C221.75765048633207 224.91525995192205 232.8740081351827 196.74521685645874 291.1615059303532 154.31600993279937C349.44900372552377 111.88680300914001 421.42570044329796 103.29328678488503 488.0639235035703 130.80723282615787C554.7021465638426 158.32117886743066 605.0606336859761 211.25250607431394 611.0249766196612 286.3829509309096C616.9893195533461 361.51339578750526 596.8047090451107 409.395148071289 516.6927695852579 491.43336813781684 "></path><path d="M584.6468221172768 300.5850782498487C589.8656221842512 366.32421749936987 572.2040879895451 408.22075074768054 502.10614096217387 480.0041933058925C432.00819393480265 551.7876358641045 304.39703702364295 673.7591857205857 248.17667638589432 645.1456025292664C191.9563157481457 616.5320193379471 220.45890805134786 438.5171393318865 232.24840990098085 342.6589939875605C244.03791175061383 246.80084864323453 253.76472469335806 222.15206093470414 304.7662852641323 185.0265048765022C355.76784583490655 147.90094881830026 418.7474554629589 140.38162212207715 477.05590064069725 164.45632490819088C535.3643458184355 188.53102769430456 579.4280220503024 234.84593900032746 584.6468221172768 300.5850782498487C589.8656221842512 366.32421749936987 572.2040879895451 408.22075074768054 502.10614096217387 480.0041933058925 "></path><path d="M558.2687133912596 314.7872055687877C562.7419705915233 371.13503921123447 547.6035127103468 407.0463534240721 487.51955811545713 468.57501847396816C427.4356035205674 530.103683523864 318.0546118824306 634.6507262579909 269.8657313357889 610.1247978082886C221.67685078914718 585.5988693585864 246.1076441918919 433.0146864962487 256.2129314915773 350.85056191539786C266.3182187912627 268.686437334547 274.6554870279007 247.55890501294954 318.3711103742786 215.73699982020503C362.0867337206565 183.91509462746052 416.06925625898714 177.46995745926927 466.04792355419136 198.10541699022383C516.0265908493957 218.74087652117845 553.7954561909958 258.4393719263409 558.2687133912596 314.7872055687877C562.7419705915233 371.13503921123447 547.6035127103468 407.0463534240721 487.51955811545713 468.57501847396816 "></path><path d="M531.8905894064533 328.98936340530486C535.6183037400065 375.9458914406771 523.0029221723593 405.8719866180419 472.9329600099512 457.1458741596218C422.86299784754317 508.4197617012019 331.71217148242914 595.5422973129741 291.5547710268944 575.1040236048889C251.39737057135966 554.6657498968037 271.7563650736469 427.51226417818907 280.17743782338476 359.04216036081334C288.5985105731226 290.5720565434376 295.5462341036542 272.96577960877306 331.97592022563583 246.44752528148592C368.4056063476174 219.92927095419884 413.3910417962262 214.55832331403946 455.0399312088964 231.75453958983496C496.6888206215667 248.95075586563053 528.1628750729001 282.03283536993257 531.8905894064533 328.98936340530486C535.6183037400065 375.9458914406771 523.0029221723593 405.8719866180419 472.9329600099512 457.1458741596218 "></path><path d="M505.51245016285793 343.1914754654548C508.4946216297004 380.75669789375263 498.4023163755827 404.6975740356445 458.34634664565624 445.7166840689084C418.29037691572984 486.73579410217235 345.3697158236386 556.4338225915902 313.24379545921084 540.083203625122C281.117875094783 523.7325846586539 297.4050706966128 422.0097960837621 304.1419288964031 367.2337130298616C310.8787870961934 312.457629975961 316.43696592061866 298.3726084282294 345.58071481820394 277.1580049663997C374.7244637157892 255.94340150457003 410.7128120746763 251.6466433924425 444.0319236048125 265.4036164130789C477.3510351349487 279.16058943371536 502.53027869601533 305.62625303715697 505.51245016285793 343.1914754654548C508.4946216297004 380.75669789375263 498.4023163755827 404.6975740356445 458.34634664565624 445.7166840689084 "></path><path d="M479.1343414368407 357.39360278439386C481.3709700369726 385.56751960561724 473.8017410963844 403.52317671203605 443.7597637989395 434.2875092369841C413.71778650149463 465.051841761932 359.0272906824262 517.3253631289954 334.93285040910536 505.0623989041443C310.83841013578456 492.7994346792932 323.0538068371569 416.50734324812436 328.1064504869996 375.42528095769893C333.1590941368423 334.3432186672735 337.3277282551613 323.77945250647474 359.18553992835024 307.8684999101025C381.0433516015392 291.95754731373023 408.0346128707045 288.73497872963463 433.0239465183066 299.0527084951119C458.0132801659088 309.37043826058925 476.8977128367088 329.2196859631705 479.1343414368407 357.39360278439386C481.3709700369726 385.56751960561724 473.8017410963844 403.52317671203605 443.7597637989395 434.2875092369841 "></path><path d="M452.7562327108235 371.59573010333287C454.24731844424474 390.3783413174818 449.2011658171859 402.3487793884277 429.17318095222265 422.8583344050597C409.1451960872595 443.36788942169164 372.68486554121387 478.21690366640064 356.6219053589999 470.04159418316647C340.55894517678604 461.8662846999324 348.70254297770094 411.00489041248653 352.0709720775961 383.6168488855362C355.4394011774912 356.228807358586 358.2184905897039 349.18629658472014 372.79036503849653 338.57899485380534C387.3622394872891 327.9716931228905 405.3564136667327 325.82331406682675 422.0159694318008 332.7018005771449C438.6755251968689 339.58028708746315 451.2651469774022 352.81311888918395 452.7562327108235 371.59573010333287C454.24731844424474 390.3783413174818 449.2011658171859 402.3487793884277 429.17318095222265 422.8583344050597 "></path><path d="M426.3781087260172 385.79785742227193C427.12365159272787 395.1891630293464 424.60057527919844 401.1743820648193 414.5865828467168 411.4291595731353C404.5725904142352 421.6839370814513 386.3424251412124 439.1084442038058 378.31094505010543 435.0207894621887C370.2794649589985 430.9331347205717 374.35126385945597 405.50243757684876 376.03547840940354 391.8084168133736C377.7196929593511 378.11439604989846 379.1092376654574 374.59314066296554 386.3951748898537 369.2894897975081C393.68111211425 363.9858389320507 402.6781992039718 362.9116494040188 411.00797708650583 366.35089265917793C419.3377549690399 369.79013591433704 425.63256585930657 376.4065518151975 426.3781087260172 385.79785742227193C427.12365159272787 395.1891630293464 424.60057527919844 401.1743820648193 414.5865828467168 411.4291595731353 "></path></g></svg>